<svg width="48" height="48" viewBox="0 0 48 48" fill="none" xmlns="http://www.w3.org/2000/svg">
<path d="M40 24C39.9996 20.4338 38.8078 16.9699 36.6138 14.1584C34.4198 11.3469 31.3495 9.34897 27.8903 8.48187C24.431 7.61477 20.7813 7.92821 17.5206 9.37241C14.2598 10.8166 11.5751 13.3088 9.89257 16.4532C8.21008 19.5976 7.62632 23.214 8.23398 26.728C8.84165 30.2421 10.6059 33.4525 13.2466 35.8493C15.8873 38.2461 19.2531 39.692 22.8094 39.9574C26.3658 40.2227 29.9088 39.2924 32.876 37.314L35.096 40.642C31.8124 42.8374 27.9499 44.0063 24 44C12.954 44 4 35.046 4 24C4 12.954 12.954 4 24 4C35.046 4 44 12.954 44 24V27C44.0002 28.4975 43.5202 29.9556 42.6304 31.1601C41.7407 32.3646 40.4881 33.2521 39.0567 33.692C37.6253 34.132 36.0905 34.1014 34.6778 33.6046C33.2651 33.1078 32.049 32.1711 31.208 30.932C29.8731 32.32 28.1659 33.293 26.2914 33.7342C24.4169 34.1754 22.4549 34.066 20.6411 33.4191C18.8273 32.7723 17.2389 31.6154 16.0666 30.0876C14.8944 28.5598 14.1882 26.726 14.0329 24.8066C13.8776 22.8872 14.2798 20.9637 15.1912 19.2673C16.1027 17.571 17.4845 16.1738 19.1707 15.2438C20.857 14.3138 22.7759 13.8904 24.6969 14.0245C26.6179 14.1587 28.4594 14.8446 30 16H34V27C34 27.7956 34.3161 28.5587 34.8787 29.1213C35.4413 29.6839 36.2043 30 37 30C37.7957 30 38.5587 29.6839 39.1213 29.1213C39.6839 28.5587 40 27.7956 40 27V24ZM24 18C22.4087 18 20.8826 18.6321 19.7574 19.7574C18.6321 20.8826 18 22.4087 18 24C18 25.5913 18.6321 27.1174 19.7574 28.2426C20.8826 29.3679 22.4087 30 24 30C25.5913 30 27.1174 29.3679 28.2426 28.2426C29.3679 27.1174 30 25.5913 30 24C30 22.4087 29.3679 20.8826 28.2426 19.7574C27.1174 18.6321 25.5913 18 24 18Z" fill="#FBF7FF"/>
</svg>
