<svg width="24" height="24" viewBox="0 0 24 24" fill="none" xmlns="http://www.w3.org/2000/svg">
<g clip-path="url(#clip0_567_44)">
<path d="M17.5224 3C17.8344 3.70853 18.0365 4.88533 17.7349 5.74693C18.9683 6.8 19.3923 9.36 18.7968 11.452C20.5547 11.5861 22.6485 11.3875 24 11.9269C22.7365 11.7645 21.0109 11.4459 19.3813 11.5568C19.0728 11.5779 18.6152 11.5451 18.6376 11.9795C20.524 12.1277 22.3987 12.2888 23.9475 12.7723C22.4112 12.5216 20.5464 12.1392 18.6376 12.0859C17.8491 13.6419 16.2621 14.4069 14.0715 14.568C14.3069 15.0803 14.7579 15.2752 14.868 16.0997C15.0323 17.3309 14.6109 19.1347 15.0267 19.9555C15.2261 20.3488 15.5512 20.3592 15.7704 20.6952C15.2339 21.3304 13.9037 20.624 13.7523 19.9555C13.4928 18.8101 14.1475 17.0344 13.4344 16.2581C13.4845 17.5072 13.1389 19.2619 13.4875 20.3779C13.6248 20.8168 14.0213 20.9861 13.9123 21.3819C11.4184 21.6352 12.4608 18.1541 12.0531 16.0992C11.6768 16.1261 11.8421 16.6627 11.8408 16.892C11.8301 18.8981 12.2515 21.6504 10.0888 21.3819C10.0256 20.9603 10.3789 20.8168 10.5136 20.4317C10.908 19.3029 10.4397 17.6208 10.6205 16.2584C9.7952 16.8805 10.7072 19.0531 10.1957 20.1667C9.90107 20.8077 8.95147 21.0869 8.2312 20.8003C8.32507 20.3235 8.81787 20.4003 9.02693 19.9557C9.3192 19.3357 9.02907 18.4427 9.13333 17.5261C7.6056 17.8309 6.42053 17.4819 5.84053 16.5224C5.58107 16.0917 5.5168 15.5835 5.2032 15.2021C4.8912 14.8203 4.39253 14.7688 4.248 14.2517C6.14 13.7965 6.21253 16.1992 7.91173 16.2584C8.4328 16.2771 8.70373 16.108 9.18587 15.9947C9.3208 15.3888 9.6096 14.9371 10.0355 14.6205C7.9208 14.3309 6.17467 13.6723 5.36267 12.0856C3.44053 12.1803 1.6816 12.4368 0.0525333 12.8245C1.5312 12.2875 3.35493 12.0949 5.30987 12.0317C5.19467 11.3395 4.1848 11.5299 3.55787 11.5565C2.3928 11.6083 0.926133 11.7531 0 11.9269C1.3424 11.4483 3.22613 11.508 5.0448 11.5043C4.48853 9.76027 4.68133 6.98987 5.8944 5.95813C5.55067 5.09173 5.65733 3.67467 6.10667 3C7.46107 3.0608 8.2824 3.65147 9.13333 4.2152C10.1885 3.9152 11.2981 3.76587 12.744 3.84533C13.352 3.87893 13.9843 4.15227 14.4424 4.10907C14.8917 4.06693 15.3869 3.56267 15.8232 3.37013C16.3915 3.1192 16.8723 3.02347 17.5224 3Z" fill="current"/>
</g>
<defs>
<clipPath id="clip0_567_44">
<rect width="24" height="24" fill="current"/>
</clipPath>
</defs>
</svg>
