<svg width="24" height="24" viewBox="0 0 24 24" fill="none" xmlns="http://www.w3.org/2000/svg">
<path d="M19.1152 4.87435C17.6055 3.37068 15.9928 4.3439 14.9836 5.34912L5.44975 14.8454C4.44052 15.8505 3.38418 17.3777 4.97308 18.9601C6.56199 20.543 8.09532 19.4906 9.10434 18.4854L18.6384 8.98938C19.6477 7.98406 20.6248 6.3778 19.1152 4.87435Z" fill="current"/>
<path d="M10.0066 4.48542L12.0254 6.49607L14.0803 4.44938C14.2198 4.3101 14.3614 4.18085 14.504 4.05896C14.2887 2.9776 13.6692 2 12.0244 2C10.3765 2 9.75779 2.98144 9.54376 4.06514C9.69762 4.1977 9.85116 4.33058 10.0066 4.48542Z" fill="current"/>
<path d="M14.0791 19.4211L12.0255 17.3756L10.0078 19.3851C9.85458 19.5378 9.70212 19.6773 9.55029 19.8083C9.78167 20.9107 10.4365 21.9204 12.0247 21.9204C13.617 21.9204 14.271 20.9053 14.5008 19.7994C14.3596 19.6783 14.2183 19.5596 14.0791 19.4211Z" fill="current"/>
<path d="M9.1504 9.35976H5.25844C3.83142 9.35976 2 9.80755 2 11.9338C2 13.5203 3.01951 14.1718 4.13003 14.4007C4.26151 14.2494 9.1504 9.35976 9.1504 9.35976Z" fill="current"/>
<path d="M19.9271 9.463C19.804 9.60569 14.9048 14.5077 14.9048 14.5077H18.7416C20.1687 14.5077 22 14.1719 22 11.9338C22 10.2927 21.015 9.67607 19.9271 9.463Z" fill="current"/>
<path d="M10.4256 8.08729L11.1209 7.39475L9.10344 5.38496C8.0941 4.37985 6.56097 3.3276 4.97207 4.91018C3.80694 6.07067 4.06573 7.20013 4.68373 8.11705C4.87196 8.10318 10.4256 8.08729 10.4256 8.08729Z" fill="current"/>
<path d="M13.6246 15.7802L12.9275 16.4746L14.9826 18.5213C15.9918 19.5266 17.6045 20.4996 19.1139 18.9961C20.2403 17.8741 19.9819 16.6957 19.3591 15.7517C19.1587 15.7661 13.6246 15.7802 13.6246 15.7802Z" fill="current"/>
</svg>
